<svg width="15" height="14" viewBox="0 0 15 14" fill="none" xmlns="http://www.w3.org/2000/svg">
<path d="M8.79305 4.19215V2.71131C8.79305 2.31856 8.63703 1.94191 8.35932 1.6642C8.08161 1.38649 7.70495 1.23047 7.31221 1.23047H2.12928C1.73653 1.23047 1.35988 1.38649 1.08216 1.6642C0.804454 1.94191 0.648438 2.31856 0.648438 2.71131V11.5963C0.648438 11.9891 0.804454 12.3657 1.08216 12.6435C1.35988 12.9212 1.73653 13.0772 2.12928 13.0772H7.31221C7.70495 13.0772 8.08161 12.9212 8.35932 12.6435C8.63703 12.3657 8.79305 11.9891 8.79305 11.5963V10.1155M5.09095 7.15382H13.976M13.976 7.15382L11.7547 4.93257M13.976 7.15382L11.7547 9.37508" stroke="#B01212" stroke-linecap="round" stroke-linejoin="round"/>
</svg>
