<svg width="17" height="16" viewBox="0 0 17 16" fill="none" xmlns="http://www.w3.org/2000/svg">
<path d="M8.3125 15C4.4525 15 1.3125 11.86 1.3125 8C1.3125 4.14 4.4525 1 8.3125 1C12.1725 1 15.3125 4.14 15.3125 8C15.3125 11.86 12.1725 15 8.3125 15ZM8.3125 2C5.0025 2 2.3125 4.69 2.3125 8C2.3125 11.31 5.0025 14 8.3125 14C11.6225 14 14.3125 11.31 14.3125 8C14.3125 4.69 11.6225 2 8.3125 2Z" fill="#7D7D7D"/>
<path d="M8.3125 4.5C7.2025 4.5 6.3125 5.39 6.3125 6.5H7.3125C7.3125 5.95 7.7625 5.5 8.3125 5.5C8.8625 5.5 9.3125 5.95 9.3125 6.5C9.3125 7.5 7.8125 7.38 7.8125 9H8.8125C8.8125 7.88 10.3125 7.75 10.3125 6.5C10.3125 5.39 9.4225 4.5 8.3125 4.5Z" fill="#7D7D7D"/>
<path d="M8.31141 11.6199C8.65382 11.6199 8.93141 11.3423 8.93141 10.9999C8.93141 10.6575 8.65382 10.3799 8.31141 10.3799C7.96899 10.3799 7.69141 10.6575 7.69141 10.9999C7.69141 11.3423 7.96899 11.6199 8.31141 11.6199Z" fill="#7D7D7D"/>
<path d="M6.8125 7C7.08864 7 7.3125 6.77614 7.3125 6.5C7.3125 6.22386 7.08864 6 6.8125 6C6.53636 6 6.3125 6.22386 6.3125 6.5C6.3125 6.77614 6.53636 7 6.8125 7Z" fill="#7D7D7D"/>
<path d="M8.3125 9.5C8.58864 9.5 8.8125 9.27614 8.8125 9C8.8125 8.72386 8.58864 8.5 8.3125 8.5C8.03636 8.5 7.8125 8.72386 7.8125 9C7.8125 9.27614 8.03636 9.5 8.3125 9.5Z" fill="#7D7D7D"/>
</svg>
