<svg width="17" height="16" viewBox="0 0 17 16" fill="none" xmlns="http://www.w3.org/2000/svg">
<path fill-rule="evenodd" clip-rule="evenodd" d="M2.77594 2.71936C2.13719 3.53223 1.75 4.64261 1.75 5.80242C1.75 6.47486 1.8655 7.11886 2.06937 7.7318H5.80658C5.84481 7.7318 5.8797 7.71 5.89646 7.67564L6.75327 5.91928C6.95744 5.50075 7.57256 5.56403 7.68725 6.01536L8.17679 7.94183C8.21778 8.10314 8.42635 8.14673 8.52851 8.01534L9.31019 7.01002C9.37356 6.92853 9.47101 6.88086 9.57424 6.88086H11.8125C12.0541 6.88086 12.25 7.07674 12.25 7.31836C12.25 7.55998 12.0541 7.75586 11.8125 7.75586H9.85402C9.84478 7.75586 9.83606 7.76013 9.83038 7.76742L8.51482 9.45886C8.26356 9.78191 7.7518 9.68275 7.63938 9.28924L7.21782 7.81368C7.16902 7.64285 6.93833 7.61571 6.85121 7.77054L6.42602 8.52623C6.39817 8.57573 6.34579 8.60636 6.289 8.60636H0.4375C0.195876 8.60636 0 8.41048 0 8.16886C0 7.92724 0.195875 7.73136 0.4375 7.73136H1.15325C0.969714 7.10463 0.87603 6.45503 0.875 5.80198C0.875 4.45667 1.32169 3.15336 2.08775 2.17861C2.856 1.20123 3.962 0.537109 5.264 0.537109C6.79656 0.537109 7.96206 1.39592 8.75 2.60823C9.5375 1.39636 10.7034 0.537109 12.2364 0.537109C13.538 0.537109 14.6444 1.20123 15.4127 2.17905C16.1779 3.15336 16.625 4.45711 16.625 5.80242C16.625 8.68205 14.637 11.087 12.7566 12.7285C11.6124 13.7193 10.3668 14.5865 9.0405 15.3159L8.97444 15.3509L8.95694 15.3605L8.95169 15.3627L8.95037 15.3635C8.95037 15.3635 8.9495 15.364 8.75 14.9746L8.56013 15.3684L8.5575 15.3675L8.55137 15.3644L8.5295 15.3535C8.40069 15.2889 8.27293 15.2222 8.14625 15.1535C7.79081 14.9601 7.44152 14.7555 7.09888 14.5402C6.24531 14.0047 5.12575 13.2159 4.07225 12.207C3.5105 11.6689 2.96537 11.0651 2.4885 10.401C2.45309 10.3544 2.42738 10.3013 2.41287 10.2446C2.39836 10.188 2.39535 10.129 2.40402 10.0712C2.41269 10.0134 2.43287 9.95787 2.46336 9.90797C2.49384 9.85807 2.53402 9.8148 2.58152 9.78069C2.62902 9.74659 2.68287 9.72235 2.7399 9.70942C2.79692 9.69648 2.85596 9.69511 2.91353 9.70538C2.97109 9.71565 3.02601 9.73736 3.07504 9.76921C3.12408 9.80107 3.16623 9.84243 3.199 9.89086C3.63869 10.5034 4.14663 11.0664 4.67775 11.5752C5.67481 12.5307 6.74275 13.2837 7.56394 13.799C7.94889 14.0408 8.34261 14.2683 8.74431 14.4811L8.85456 14.4194C10.0381 13.7477 11.1523 12.9606 12.1809 12.0696C14.0192 10.4644 15.75 8.28305 15.75 5.80198C15.75 4.64261 15.3628 3.5318 14.7245 2.71892C14.0875 1.90955 13.2182 1.41211 12.2364 1.41211C10.8789 1.41211 9.82581 2.29586 9.14288 3.68798C8.98258 4.01428 8.51742 4.01428 8.35712 3.68798C7.67419 2.29586 6.62113 1.41211 5.264 1.41211C4.28181 1.41211 3.4125 1.90911 2.77594 2.71936ZM8.75 14.9746L8.56013 15.3684L8.75612 15.4633L8.95037 15.3635L8.75 14.9746Z" fill="#7D7D7D"/>
</svg>
