<svg width="15" height="16" viewBox="0 0 15 16" fill="none" xmlns="http://www.w3.org/2000/svg">
<path d="M0.648438 14.6637V13.1829C0.648438 12.3974 0.96047 11.6441 1.51589 11.0887C2.07131 10.5332 2.82463 10.2212 3.61011 10.2212H6.57179C7.35728 10.2212 8.11059 10.5332 8.66601 11.0887C9.22144 11.6441 9.53347 12.3974 9.53347 13.1829V14.6637M10.2739 1.43244C10.911 1.59555 11.4756 1.96606 11.8788 2.48555C12.2821 3.00503 12.501 3.64395 12.501 4.30156C12.501 4.95918 12.2821 5.5981 11.8788 6.11758C11.4756 6.63707 10.911 7.00757 10.2739 7.17069M13.976 14.6637V13.1829C13.9722 12.5292 13.7523 11.8951 13.3505 11.3795C12.9487 10.8639 12.3877 10.4957 11.7547 10.3323M2.12928 4.29786C2.12928 5.08334 2.44131 5.83666 2.99673 6.39208C3.55215 6.9475 4.30547 7.25954 5.09095 7.25954C5.87644 7.25954 6.62975 6.9475 7.18518 6.39208C7.7406 5.83666 8.05263 5.08334 8.05263 4.29786C8.05263 3.51237 7.7406 2.75906 7.18518 2.20364C6.62975 1.64821 5.87644 1.33618 5.09095 1.33618C4.30547 1.33618 3.55215 1.64821 2.99673 2.20364C2.44131 2.75906 2.12928 3.51237 2.12928 4.29786Z" stroke="#7D7D7D" stroke-linecap="round" stroke-linejoin="round"/>
</svg>
