<svg width="15" height="17" viewBox="0 0 15 17" fill="none" xmlns="http://www.w3.org/2000/svg">
<path d="M13.143 3.91129C13.3975 4.05601 13.6088 4.26593 13.7552 4.51943C13.9016 4.77294 13.9778 5.06088 13.976 5.35362V10.7468C13.976 11.3458 13.648 11.8982 13.1186 12.1892L8.12075 15.3508C7.87297 15.4868 7.59488 15.5581 7.31221 15.5581C7.02955 15.5581 6.75145 15.4868 6.50367 15.3508L1.50584 12.1892C1.24682 12.0476 1.03059 11.8391 0.879753 11.5853C0.728921 11.3316 0.649031 11.042 0.648438 10.7468V5.35288C0.648438 4.75388 0.976443 4.20227 1.50584 3.91129L6.50367 0.964418C6.75877 0.823765 7.04534 0.75 7.33665 0.75C7.62795 0.75 7.91452 0.823765 8.16962 0.964418L13.1674 3.91129H13.143Z" stroke="#7D7D7D" stroke-linecap="round" stroke-linejoin="round"/>
<path d="M5.09095 8.1539C5.09095 8.74301 5.32498 9.308 5.74154 9.72457C6.15811 10.1411 6.7231 10.3752 7.31221 10.3752C7.90133 10.3752 8.46631 10.1411 8.88288 9.72457C9.29944 9.308 9.53347 8.74301 9.53347 8.1539C9.53347 7.56479 9.29944 6.9998 8.88288 6.58323C8.46631 6.16667 7.90133 5.93264 7.31221 5.93264C6.7231 5.93264 6.15811 6.16667 5.74154 6.58323C5.32498 6.9998 5.09095 7.56479 5.09095 8.1539Z" stroke="#7D7D7D" stroke-linecap="round" stroke-linejoin="round"/>
</svg>
