<svg width="12" height="16" viewBox="0 0 12 16" fill="none" xmlns="http://www.w3.org/2000/svg">
<path d="M4.09058 2.73947H2.60974C2.217 2.73947 1.84034 2.89548 1.56263 3.17319C1.28492 3.45091 1.12891 3.82756 1.12891 4.22031V13.1053C1.12891 13.4981 1.28492 13.8747 1.56263 14.1524C1.84034 14.4302 2.217 14.5862 2.60974 14.5862H10.0139C10.4067 14.5862 10.7833 14.4302 11.061 14.1524C11.3388 13.8747 11.4948 13.4981 11.4948 13.1053V4.22031C11.4948 3.82756 11.3388 3.45091 11.061 3.17319C10.7833 2.89548 10.4067 2.73947 10.0139 2.73947H8.5331M4.09058 2.73947C4.09058 2.34672 4.2466 2.1255 4.52431 1.84779C4.80202 1.57008 5.17868 1.41406 5.57142 1.41406H7.05226C7.445 1.41406 7.82166 1.57008 8.09937 1.84779C8.37708 2.1255 8.5331 2.34672 8.5331 2.73947M4.09058 2.73947C4.09058 3.13221 4.2466 3.34017 4.52431 3.61788C4.80202 3.89559 5.17868 4.00691 5.57142 4.00691H7.05226C7.445 4.00691 7.82166 3.89559 8.09937 3.61788C8.37708 3.34017 8.5331 3.13221 8.5331 2.73947M3.62891 6.41406V11.9141M4.09058 6.41406V11.9141M5.62891 7.91406V11.9141M6.12891 7.91406V11.9141M7.62891 9.91406V11.9141M8.12891 9.91406V11.9141M7.98835 9.91406V11.9141M7.79365 9.91406V11.9141M5.99411 7.91406V11.9141M5.81439 7.91406V11.9141M3.76109 6.41406V11.9141M3.94081 6.41406V11.9141" stroke="#7D7D7D" stroke-linecap="round" stroke-linejoin="round"/>
</svg>
